# xmcd
#
# Track frame offsets:
#	150
#	16792
#	31334
#	47923
#	67064
#	82105
#	96860
#	112811
#	125647
#	134403
#	145846
#	158956
#	178445
#
# Disc length: 2545 seconds
#
# Revision: 1
# Processed by: cddbd v1.5.2PL0 Copyright (c) Steve Scherf et al.
# Submitted via: audiograbber 1.83.01
#
DISCID=ba09ef0d
DTITLE=McEbel One Man Bluesband - Blues mit Hand und Fuss
DYEAR=2010
DGENRE=Blues
TTITLE0=Bankers Blues
TTITLE1=Feels Like Rain
TTITLE2=Hallelujah, I Love Her So
TTITLE3=I Can't Stand The Rain
TTITLE4=Let The Good Times Roll
TTITLE5=Let's Go Get Stoned
TTITLE6=Living For The City
TTITLE7=Some Outside Help
TTITLE8=Mercy, Mercy
TTITLE9=Move To The Country
TTITLE10=Palace Of The King
TTITLE11=T-Bone Shuffle
TTITLE12=Work Song
EXTD=
EXTT0=
EXTT1=
EXTT2=
EXTT3=
EXTT4=
EXTT5=
EXTT6=
EXTT7=
EXTT8=
EXTT9=
EXTT10=
EXTT11=
EXTT12=
PLAYORDER=
